<?xml version="1.0" standalone="no"?>
<!DOCTYPE svg PUBLIC "-//W3C//DTD SVG 20010904//EN"
 "http://www.w3.org/TR/2001/REC-SVG-20010904/DTD/svg10.dtd">
<svg version="1.0" xmlns="http://www.w3.org/2000/svg"
 width="127.000000pt" height="127.000000pt" viewBox="0 0 127.000000 127.000000"
 preserveAspectRatio="xMidYMid meet">
<metadata>
Created by potrace 1.14, written by Peter Selinger 2001-2017
</metadata>
<g transform="translate(0.000000,127.000000) scale(0.100000,-0.100000)"
fill="#000000" stroke="none">
<path d="M993 1152 c-26 -21 -76 -69 -110 -105 -74 -80 -92 -127 -74 -196 l12
-45 -43 -41 c-24 -23 -172 -165 -330 -314 -159 -150 -288 -279 -288 -288 0
-22 65 -83 88 -83 13 0 115 100 303 297 155 164 296 312 313 330 29 30 34 32
69 23 75 -17 122 8 229 118 96 99 117 136 97 173 -10 19 -17 14 -105 -71 -89
-86 -121 -104 -131 -74 -2 7 34 57 82 112 47 55 85 104 85 109 0 5 -5 14 -11
20 -9 9 -38 -11 -117 -78 -58 -49 -110 -88 -116 -86 -32 11 -13 44 73 131 51
51 88 95 85 99 -18 18 -65 5 -111 -31z"/>
<path d="M53 1131 c-68 -43 -67 -151 3 -267 38 -65 68 -94 129 -126 32 -17 50
-19 101 -15 l62 6 74 -78 75 -77 41 36 41 37 -78 76 -78 76 4 73 c4 68 3 76
-26 120 -75 117 -264 192 -348 139z"/>
<path d="M697 452 c-20 -21 -37 -41 -37 -46 0 -4 69 -79 152 -167 106 -111
159 -159 175 -159 30 0 85 57 81 85 -2 13 -66 82 -163 174 -87 83 -162 151
-165 151 -3 0 -23 -17 -43 -38z"/>
</g>
</svg>
